<svg id="Layer_1" data-name="Layer 1" xmlns="http://www.w3.org/2000/svg" viewBox="0 0 364.35 364.35"><defs><style>.cls-1,.cls-2{fill:none;stroke:#000;stroke-miterlimit:3.86;}.cls-1{stroke-width:4.35px;}.cls-2{stroke-width:1.25px;}.cls-3{fill:#232020;}.cls-4{fill:#231f20;}</style></defs><title>cert_seal</title><path class="cls-1" d="M189,15.3a180,180,0,1,0,180,180A180,180,0,0,0,189,15.3Zm0,299.92a119.92,119.92,0,0,1,0-239.84c63.92,0,119.92,53.69,119.92,119.92A119.92,119.92,0,0,1,189,315.22Z" transform="translate(-6.81 -13.13)"/><circle class="cls-2" cx="188.98" cy="195.3" r="171.85" transform="matrix(0.16, -0.99, 0.99, 0.16, -41.05, 337.18)"/><polygon points="33.33 148.14 36.21 157.01 45.53 157.01 37.99 162.49 40.87 171.35 33.33 165.87 25.79 171.35 28.67 162.49 21.13 157.01 30.45 157.01 33.33 148.14"/><polygon points="331.78 148.14 334.66 157.01 343.98 157.01 336.44 162.49 339.32 171.35 331.78 165.87 324.24 171.35 327.12 162.49 319.58 157.01 328.9 157.01 331.78 148.14"/><path class="cls-2" d="M61.87,195.3A127.11,127.11,0,1,1,189,322.41,127.11,127.11,0,0,1,61.87,195.3Z" transform="translate(-6.81 -13.13)"/><path d="M43.76,141.88a3.69,3.69,0,0,0,.39,3.51,7.15,7.15,0,0,0,3.67,2.49q5.4,1.92,6.84-2.13a13.55,13.55,0,0,0,.61-4.42l2.87,1a12.16,12.16,0,0,1-.74,4.73,7.22,7.22,0,0,1-4,4.63,9.58,9.58,0,0,1-6.8-.31,10.7,10.7,0,0,1-4.09-2.48,7.09,7.09,0,0,1-2-3.67,8.19,8.19,0,0,1,.42-4.38,11.5,11.5,0,0,1,2.81-4.32l2.4,2.09a18.31,18.31,0,0,0-1.4,1.55A5.87,5.87,0,0,0,43.76,141.88Z" transform="translate(-6.81 -13.13)"/><path d="M64.73,129.87l-4.21-.67-2.74,5.61,3.12,2.91-1.72,3.51-12.81-13,2-4,18.13,2.09Zm-7.33-1.23-6.48-1c-.5-.08-.89-.16-1.17-.22.78.67,2.68,2.41,5.69,5.24Z" transform="translate(-6.81 -13.13)"/><path d="M63.82,118.31l5.55,3.53-2,3.07L53,115.71l2.68-4.21a8.51,8.51,0,0,1,3.85-3.68,5.07,5.07,0,0,1,6,2.8,5.46,5.46,0,0,1,.3,3q6.95-.15,9-.24l-2.17,3.4-7.74-.08Zm-2.49-1.58.63-1a4.46,4.46,0,0,0,.88-2.46,2.06,2.06,0,0,0-1.08-1.66,1.87,1.87,0,0,0-1.91-.22A5.09,5.09,0,0,0,58,113.31l-.59.93Z" transform="translate(-6.81 -13.13)"/><path d="M85.46,100.26l-2.94,3.56-14.74-2.49-.07.08c1.87,1.34,3.17,2.32,3.93,2.94l6.22,5.13L75.79,112l-13.22-10.9,2.92-3.54L80.12,100l0-.06c-1.79-1.33-3-2.28-3.75-2.87l-6.26-5.16,2.08-2.52Z" transform="translate(-6.81 -13.13)"/><path d="M95.05,90.9,88,97.78,76,85.48l7.08-6.87,2.07,2.14-4.47,4.34,2.62,2.7,4.16-4,2.08,2.13-4.17,4,3.08,3.17L93,88.75Z" transform="translate(-6.81 -13.13)"/><path d="M96.24,77.46l5.34-4.21,5.5,7a18.88,18.88,0,0,1-4.19,4.54,7.53,7.53,0,0,1-6.06,1.87q-3-.52-5.66-3.87A8.68,8.68,0,0,1,89,76.22a9,9,0,0,1,3.74-5.9A12.75,12.75,0,0,1,97.41,68l.85,3a8.69,8.69,0,0,0-3.64,1.68,4.83,4.83,0,0,0-2,3.58,6.16,6.16,0,0,0,1.52,4.22,6.84,6.84,0,0,0,3.54,2.64,4,4,0,0,0,3.52-.9,11.52,11.52,0,0,0,1.66-1.62l-2.21-2.8-2.55,2Z" transform="translate(-6.81 -13.13)"/><path d="M110.45,79,101,64.65l3-2L113.49,77Z" transform="translate(-6.81 -13.13)"/><path d="M125.19,70.16,116.57,75l-8.36-15,8.61-4.82,1.45,2.6-5.44,3,1.84,3.29,5.06-2.84,1.46,2.6-5.07,2.83,2.16,3.86,5.44-3Z" transform="translate(-6.81 -13.13)"/><path d="M139.9,63.78l-8.42-11.26-.1,0q1.59,3.8,2.06,5.08l2.68,7.5-3.05,1.1-5.78-16.14L132,48.43l8.23,11,.07,0-.37-13.78,4.66-1.67,5.77,16.13-3.19,1.15-2.73-7.64c-.13-.36-.27-.78-.43-1.25s-.55-1.75-1.19-3.81l-.1,0L143,62.66Z" transform="translate(-6.81 -13.13)"/><path d="M163.37,57.2l-9.63,2.16L150,42.64l9.63-2.16.65,2.91-6.08,1.36.82,3.67,5.66-1.27.65,2.91-5.66,1.26,1,4.32,6.08-1.37Z" transform="translate(-6.81 -13.13)"/><path d="M166.33,56.71l-2.18-17,3.6-.46,1.8,14,6.89-.88.38,3Z" transform="translate(-6.81 -13.13)"/><path d="M179.08,55.24l-.64-17.12,3.63-.14.53,14.13,6.94-.26.11,3Z" transform="translate(-6.81 -13.13)"/><path d="M207.71,47.33a9.31,9.31,0,0,1-2.57,6.37,9.12,9.12,0,0,1-12.06-.85c-1.3-1.62-1.84-3.85-1.64-6.69s1.05-5,2.56-6.37A8,8,0,0,1,200.21,38a7.83,7.83,0,0,1,5.87,2.7C207.36,42.27,207.91,44.49,207.71,47.33Zm-12.48-.88a7.16,7.16,0,0,0,.79,4.39,3.81,3.81,0,0,0,3.15,1.68q4.34.3,4.74-5.46T200,41a3.84,3.84,0,0,0-3.36,1.23A7.14,7.14,0,0,0,195.23,46.45Z" transform="translate(-6.81 -13.13)"/><path d="M224.68,59.34l-4.52-.93-4.71-14.19-.1,0c-.32,2.27-.57,3.89-.77,4.85L213,57l-3.18-.65,3.43-16.79,4.49.92,4.72,14.06.08,0c.33-2.21.59-3.76.77-4.67l1.63-7.94,3.2.65Z" transform="translate(-6.81 -13.13)"/><path d="M253,51.25l-4,10.32a6.31,6.31,0,0,1-2,2.78,5.43,5.43,0,0,1-3.08,1.15,8.86,8.86,0,0,1-3.81-.68,7.27,7.27,0,0,1-4.16-3.45,6,6,0,0,1,0-5l4-10.28,3.37,1.32-3.83,9.77a4.38,4.38,0,0,0-.32,3A3.31,3.31,0,0,0,241.29,62a3.21,3.21,0,0,0,2.74.07,4.41,4.41,0,0,0,1.82-2.42l3.82-9.75Z" transform="translate(-6.81 -13.13)"/><path d="M263.13,75.9l-4-2.22-.29-15-.09,0q-1.47,3.1-2.17,4.4l-3.88,7.06-2.85-1.56,8.26-15,4,2.21.34,14.83.08,0c1-2,1.67-3.41,2.12-4.22l3.9-7.11,2.87,1.58Z" transform="translate(-6.81 -13.13)"/><path d="M266.07,78l9.6-14.19,3,2L269.08,80Z" transform="translate(-6.81 -13.13)"/><path d="M290.74,75.07l2.86,2.29-15.27,9.71-3.08-2.48,6.19-17,2.86,2.29-3.87,10c-.24.58-.53,1.24-.88,2s-.61,1.25-.77,1.52A31.24,31.24,0,0,1,281.83,81Z" transform="translate(-6.81 -13.13)"/><path d="M291.15,99l-7-6.92,12-12.22,7,6.92-2.08,2.12-4.45-4.37L294,87.18l4.14,4.06L296,93.37l-4.13-4.07-3.1,3.15,4.44,4.37Z" transform="translate(-6.81 -13.13)"/><path d="M300.57,99.73l-5.05,4.2-2.33-2.79,13.17-11L309.55,94a8.51,8.51,0,0,1,2.33,4.78,5.06,5.06,0,0,1-4.49,4.84,5.44,5.44,0,0,1-2.93-.63q-2,6.67-2.51,8.65l-2.58-3.1,2.43-7.35Zm2.27-1.89.75.9a4.49,4.49,0,0,0,2.07,1.59,2.05,2.05,0,0,0,1.91-.53,1.86,1.86,0,0,0,.79-1.75,5,5,0,0,0-1.26-2.33l-.71-.84Z" transform="translate(-6.81 -13.13)"/><path d="M312.69,119.24a4.44,4.44,0,0,1-4,.65,7.26,7.26,0,0,1-3.7-3.11,11,11,0,0,1-1.85-4.6l2.8-1.89a19.23,19.23,0,0,0,.74,3,8.66,8.66,0,0,0,1,2,3.16,3.16,0,0,0,1.4,1.27,1.55,1.55,0,0,0,1.48-.23,1.5,1.5,0,0,0,.59-.73,3.24,3.24,0,0,0,.17-1.11,19.44,19.44,0,0,0-.28-2.49,10.47,10.47,0,0,1-.13-2.75,5.4,5.4,0,0,1,.61-1.92,4.59,4.59,0,0,1,1.49-1.56,4.42,4.42,0,0,1,3.83-.72,6.4,6.4,0,0,1,3.45,2.82,9.68,9.68,0,0,1,1.16,2.29,17.55,17.55,0,0,1,.68,2.6l-3,.6a17.4,17.4,0,0,0-.61-2.32,7.4,7.4,0,0,0-.8-1.59,2.29,2.29,0,0,0-1.28-1,1.57,1.57,0,0,0-1.35.24,1.47,1.47,0,0,0-.57.65,2.3,2.3,0,0,0-.18,1,22,22,0,0,0,.29,2.59,9.2,9.2,0,0,1-.08,4A4.5,4.5,0,0,1,312.69,119.24Z" transform="translate(-6.81 -13.13)"/><path d="M310,124.24l14.88-8.49,1.8,3.15-14.88,8.5Z" transform="translate(-6.81 -13.13)"/><path d="M316.54,136.7,315,133.42l12.74-6.06-2-4.2,2.73-1.3L334,133.54l-2.73,1.3-2-4.2Z" transform="translate(-6.81 -13.13)"/><path d="M330.94,145.48l7.84,1,1.3,3.69-11.76-1.89-6.29,2.2-1.2-3.4L327,145l8.11-8.87,1.3,3.72Z" transform="translate(-6.81 -13.13)"/><path d="M36.9,209a4.4,4.4,0,0,1-3.73-1.48,7.27,7.27,0,0,1-1.58-4.57,11.05,11.05,0,0,1,.78-4.9l3.37-.17a20.56,20.56,0,0,0-.93,3A8.89,8.89,0,0,0,34.6,203a3.26,3.26,0,0,0,.55,1.81,1.55,1.55,0,0,0,1.4.56,1.48,1.48,0,0,0,.88-.32,3.07,3.07,0,0,0,.71-.87,21,21,0,0,0,1-2.27,10.37,10.37,0,0,1,1.3-2.43A5.17,5.17,0,0,1,42,198.19a4.93,4.93,0,0,1,5.73.77,6.39,6.39,0,0,1,1.52,4.19,9.82,9.82,0,0,1-.18,2.56,17.17,17.17,0,0,1-.76,2.58l-2.88-1a16.93,16.93,0,0,0,.67-2.31,7.62,7.62,0,0,0,.13-1.77,2.41,2.41,0,0,0-.56-1.56,1.59,1.59,0,0,0-1.29-.48,1.56,1.56,0,0,0-.82.26,2.46,2.46,0,0,0-.65.75,20.81,20.81,0,0,0-1.09,2.36,9.31,9.31,0,0,1-2.12,3.41A4.48,4.48,0,0,1,36.9,209Z" transform="translate(-6.81 -13.13)"/><path d="M43.69,228.34c-2.8.47-5.06.14-6.8-1a9.16,9.16,0,0,1-2-11.93c1.27-1.64,3.31-2.69,6.12-3.17s5.08-.14,6.8,1a7.92,7.92,0,0,1,3.23,5.6,7.78,7.78,0,0,1-1.23,6.33Q47.89,227.63,43.69,228.34ZM41.6,216a7.15,7.15,0,0,0-4.08,1.8,3.81,3.81,0,0,0-.89,3.45c.48,2.86,2.63,4,6.42,3.32s5.47-2.38,5-5.23a3.84,3.84,0,0,0-2-3A7.16,7.16,0,0,0,41.6,216Z" transform="translate(-6.81 -13.13)"/><path d="M37.67,238.57l-1-3.43,16.45-4.79,2.75,9.43-2.86.83-1.75-6L47,235.85l1.63,5.58-2.85.83-1.63-5.58Z" transform="translate(-6.81 -13.13)"/><path d="M43.86,256.21l-1.37-3.37,13.07-5.31-1.75-4.31,2.8-1.14,4.87,12-2.8,1.14-1.75-4.31Z" transform="translate(-6.81 -13.13)"/><path d="M56.52,280.54,54.44,277l6.61-6.53q.36-.36,1.5-1.38c.76-.68,1.29-1.13,1.57-1.33a20.1,20.1,0,0,1-1.94.72c-.9.31-1.55.52-1.94.63l-8.92,2.52L49.24,268l12.62-12.39,1.79,3.09-7,6.6q-2,1.8-3.46,3c.41-.18,1.06-.43,1.95-.76s1.6-.55,2.12-.68l9.55-2.67,1.73,3-7.05,7c-.31.31-.81.76-1.49,1.35s-1.27,1.07-1.78,1.46c.57-.24,1.29-.51,2.16-.82s1.59-.54,2.15-.7l9.18-2.82,1.79,3.09Z" transform="translate(-6.81 -13.13)"/><path d="M67.79,295.73l2.44-3.49-3.85-4.92-4,1.54L60,285.78l17.27-5.85L80,283.42l-9.8,15.39Zm4.31-6.05c2.19-3.19,3.44-5,3.73-5.4s.53-.73.71-.95c-.94.41-3.34,1.36-7.2,2.83Z" transform="translate(-6.81 -13.13)"/><path d="M80.56,300.07l-4.67,4.64-2.56-2.58,12.15-12.08L89,293.59a8.5,8.5,0,0,1,2.74,4.56,4.53,4.53,0,0,1-1.55,3.91,4.58,4.58,0,0,1-2.5,1.31,5.49,5.49,0,0,1-3-.37q-1.36,6.81-1.74,8.84L80.14,309l1.78-7.54ZM82.65,298l.83.83a4.45,4.45,0,0,0,2.2,1.4,2,2,0,0,0,1.85-.69,1.87,1.87,0,0,0,.64-1.82,5,5,0,0,0-1.46-2.2l-.78-.78Z" transform="translate(-6.81 -13.13)"/><path d="M94.07,320.91l-7.66-6.22L97.2,301.38l7.66,6.22L103,309.91,98.15,306l-2.37,2.93,4.5,3.65-1.87,2.31-4.51-3.65-2.78,3.43L96,318.58Z" transform="translate(-6.81 -13.13)"/><path d="M113.64,333.56l-8.49-5,8.71-14.75,8.5,5-1.52,2.56-5.36-3.17-1.92,3.24,5,2.95L117,327l-5-2.95-2.25,3.81,5.37,3.17Z" transform="translate(-6.81 -13.13)"/><path d="M132.86,342.53l-4.23-1.86L127,325.81l-.1,0q-1.17,3.24-1.76,4.57l-3.24,7.39-3-1.3,6.87-15.7,4.2,1.84,1.67,14.74.07,0q1.19-3.14,1.74-4.4l3.25-7.43,3,1.31Z" transform="translate(-6.81 -13.13)"/><path d="M148.1,337.29l6.53,1.87-2.45,8.54a19.3,19.3,0,0,1-3.2-.13,20.69,20.69,0,0,1-2.93-.62,7.55,7.55,0,0,1-5.06-3.82q-1.34-2.76-.16-6.86a8.61,8.61,0,0,1,4.07-5.56,9,9,0,0,1,7-.42,13,13,0,0,1,4.6,2.42l-2,2.46a8.8,8.8,0,0,0-3.5-2,4.84,4.84,0,0,0-4.06.48,6.21,6.21,0,0,0-2.54,3.7,6.86,6.86,0,0,0-.07,4.41,4,4,0,0,0,2.78,2.33,11.3,11.3,0,0,0,2.29.41l1-3.43-3.12-.9Z" transform="translate(-6.81 -13.13)"/><path d="M158,349.6l3.16-16.84,3.57.67-3.15,16.84Z" transform="translate(-6.81 -13.13)"/><path d="M183,352.7l-4.6-.39-6.32-13.55H172c0,2.3-.11,3.93-.19,4.9l-.69,8-3.23-.28,1.46-17.07,4.56.39,6.32,13.42h.09c.07-2.22.14-3.8.22-4.72l.69-8.08,3.26.28Z" transform="translate(-6.81 -13.13)"/><path d="M199.29,352.39l-9.86.31-.54-17.13,9.86-.31.1,3-6.24.19.12,3.76,5.8-.18.09,3-5.79.18.13,4.42,6.23-.2Z" transform="translate(-6.81 -13.13)"/><path d="M214.83,350.61l-9.78,1.28-2.22-17,9.78-1.28.38,2.95-6.18.81.49,3.73,5.75-.75.39,2.95-5.75.75.57,4.38,6.18-.8Z" transform="translate(-6.81 -13.13)"/><path d="M222.61,342.31l1.55,6.39-3.53.86-4-16.65,4.85-1.18a8.53,8.53,0,0,1,5.32,0,5.07,5.07,0,0,1,2.37,6.16,5.54,5.54,0,0,1-1.86,2.35q5.13,4.71,6.66,6.07l-3.92.95-5.52-5.42Zm-.7-2.87,1.14-.27a4.55,4.55,0,0,0,2.34-1.16,2.06,2.06,0,0,0,.37-1.95,1.88,1.88,0,0,0-1.23-1.49,5.16,5.16,0,0,0-2.64.11l-1.07.26Z" transform="translate(-6.81 -13.13)"/><path d="M238.18,344.8l-5.54-16.21,3.43-1.18,5.55,16.21Z" transform="translate(-6.81 -13.13)"/><path d="M261.45,335.19l-4.2,1.93-12.18-8.67-.09,0c1.09,2,1.84,3.48,2.24,4.36l3.37,7.33-3,1.35L240.49,326l4.16-1.91,12.12,8.56.07,0q-1.54-3-2.13-4.22L251.33,321l3-1.37Z" transform="translate(-6.81 -13.13)"/><path d="M267.69,320.32l5.75-3.63,4.74,7.51a19.62,19.62,0,0,1-2.22,2.3,20.48,20.48,0,0,1-2.41,1.77,7.55,7.55,0,0,1-6.23,1.24q-2.94-.84-5.22-4.44a8.64,8.64,0,0,1-1.45-6.74,9,9,0,0,1,4.33-5.47,12.81,12.81,0,0,1,4.86-1.83l.53,3.1a8.69,8.69,0,0,0-3.8,1.29,4.83,4.83,0,0,0-2.34,3.36,6.12,6.12,0,0,0,1.07,4.35,6.8,6.8,0,0,0,3.24,3,3.93,3.93,0,0,0,3.59-.53,11.62,11.62,0,0,0,1.83-1.43l-1.91-3-2.74,1.73Z" transform="translate(-6.81 -13.13)"/><path d="M289.76,316.14l-11.14-13,2.77-2.36,11.13,13Z" transform="translate(-6.81 -13.13)"/><path d="M307.84,298.66,304.65,302l-14.52-3.59-.07.08c1.75,1.47,3,2.55,3.69,3.22l5.82,5.58-2.25,2.35L285,297.78l3.17-3.31L302.54,298l0-.06c-1.68-1.46-2.86-2.5-3.53-3.14l-5.85-5.61,2.26-2.36Z" transform="translate(-6.81 -13.13)"/><path d="M314.18,282.71a4.47,4.47,0,0,1,1.91,3.54,7.27,7.27,0,0,1-1.74,4.51A10.88,10.88,0,0,1,310.6,294l-2.69-2a19.88,19.88,0,0,0,2.64-1.68,8.66,8.66,0,0,0,1.58-1.56,3.2,3.2,0,0,0,.74-1.74,1.7,1.7,0,0,0-1.59-1.65,3.21,3.21,0,0,0-1.1.21,20.14,20.14,0,0,0-2.26,1.07,10.44,10.44,0,0,1-2.55,1,5.29,5.29,0,0,1-2,.05,4.94,4.94,0,0,1-3.89-4.28,6.44,6.44,0,0,1,1.53-4.19,10.43,10.43,0,0,1,1.79-1.84,18.14,18.14,0,0,1,2.24-1.49l1.55,2.64a18,18,0,0,0-2,1.34,7.82,7.82,0,0,0-1.24,1.27,2.39,2.39,0,0,0-.57,1.55,1.61,1.61,0,0,0,.67,1.2,1.63,1.63,0,0,0,.8.33,2.63,2.63,0,0,0,1-.15,23.35,23.35,0,0,0,2.35-1.12,9.23,9.23,0,0,1,3.82-1.23A4.52,4.52,0,0,1,314.18,282.71Z" transform="translate(-6.81 -13.13)"/><path d="M324.46,275.36l-1.89,3.1-12.05-7.33-2.42,4-2.58-1.57,6.72-11.06,2.58,1.57-2.41,4Z" transform="translate(-6.81 -13.13)"/><path d="M328.78,267.57l-15.3-7.7,1.63-3.25,15.3,7.7Z" transform="translate(-6.81 -13.13)"/><path d="M335.46,252.87l-1.37,3.36L321,250.92l-1.75,4.31-2.8-1.14,4.87-12,2.8,1.14-1.75,4.31Z" transform="translate(-6.81 -13.13)"/><path d="M326,226.11l10.68,3a6.26,6.26,0,0,1,3,1.71,5.46,5.46,0,0,1,1.45,3,8.68,8.68,0,0,1-.28,3.86,7.28,7.28,0,0,1-3,4.49,6,6,0,0,1-5,.52l-10.63-3,1-3.49,10.1,2.81a4.47,4.47,0,0,0,3,0,3.34,3.34,0,0,0,1.59-2.3,3.26,3.26,0,0,0-.2-2.74,4.43,4.43,0,0,0-2.61-1.55L325,229.6Z" transform="translate(-6.81 -13.13)"/><path d="M344.69,218.05l-.56,3.59-13.94-2.19-.72,4.6-3-.47,2-12.78,3,.47-.72,4.59Z" transform="translate(-6.81 -13.13)"/><path d="M346.35,199.2l-.57,9.85-17.1-1,.57-9.85,3,.17-.36,6.22,3.76.22L336,199l3,.17-.33,5.79,4.41.26.36-6.23Z" transform="translate(-6.81 -13.13)"/><path class="cls-3" d="M138.53,205.88c-.21-1.73-.84-8.83-8.14-8.83-8,0-11.32,8.34-11.32,18.69,0,3,0,17.24,10.49,17.24,4.52,0,8.83-2.84,9-9.52h11.33c-.21,3-.49,7.65-4.51,11.82-4.46,4.58-10.08,5.62-14.67,5.62-17.3,0-22.93-12.78-22.93-25.23,0-15.91,8.9-26.47,23-26.47,11,0,18.7,6.67,18.7,16.68Z" transform="translate(-6.81 -13.13)"/><polygon class="cls-3" points="150.13 176.35 183.76 176.35 183.76 184.55 160.9 184.55 160.9 196.5 182.3 196.5 182.3 204.71 160.9 204.71 160.9 218.25 184.52 218.25 184.52 226.59 150.13 226.59 150.13 176.35"/><path class="cls-3" d="M198.41,189.48h19.26c5.55-.07,11.18-.07,15.21,3.4a12.71,12.71,0,0,1,4.38,9.66c0,9.39-8.07,11.61-10.49,12.31,7.57.69,8.13,5,9,11.53a96,96,0,0,0,1.53,9.73,9,9,0,0,0,1.53,3.61H227c-.49-2.78-2-15.5-2.72-17.44-1-2.86-3.6-2.86-5.41-2.86H209.4v20.3h-11Zm10.64,22h8.68c1.26,0,3.76,0,5.49-1.38a6.94,6.94,0,0,0,2.79-5.84c0-3.4-1.68-5-2.65-5.63-1.67-1.18-3.68-1.18-7.08-1.18h-7.23Z" transform="translate(-6.81 -13.13)"/><polygon class="cls-3" points="248.31 184.69 233.37 184.69 233.37 176.35 274.1 176.35 274.1 184.69 259.16 184.69 259.16 226.59 248.31 226.59 248.31 184.69"/><path class="cls-4" d="M279.24,177.53c-10.62-40.21-46.51-69.79-89.17-69.79-51,0-92.38,42.32-92.38,94.54a96.16,96.16,0,0,0,7.44,37.24,99.94,99.94,0,0,1-5-31.46c0-47.17,32-85.41,71.35-85.41,30.42,0,56.37,22.79,66.64,54.88Z" transform="translate(-6.81 -13.13)"/></svg>