<?xml version="1.0" encoding="utf-8"?>
<!-- Generator: Adobe Illustrator 26.0.1, SVG Export Plug-In . SVG Version: 6.00 Build 0)  -->
<svg version="1.1" id="Layer_1" xmlns="http://www.w3.org/2000/svg" xmlns:xlink="http://www.w3.org/1999/xlink" x="0px" y="0px"
	 viewBox="0 0 851.9 144.2" style="enable-background:new 0 0 851.9 144.2;" xml:space="preserve">
<style type="text/css">
	.st0{fill:#FFFFFF;}
</style>
<g>
	<polygon class="st0" points="213.5,18.7 213.5,45.5 218,45.5 218,47.3 200.1,47.3 200.1,45.5 204.6,45.5 204.6,20.6 201.1,20.6 
		201.1,18.7 	"/>
	<path class="st0" d="M36.9,1.4h-1.6c-0.1,1.4-0.8,2-2.2,2C30.4,3.4,26.3,0,21.6,0C8.1,0,0,13.3,0,25c0,11.8,7.8,23.4,20.8,23.4
		c7.9,0,10.8-3.7,12.9-3.7c1.4,0,1.6,1.2,1.6,2.7h1.8V31.2h-1.8l-0.4,2.2c-0.9,5.3-5.1,13.2-13.5,13.2c-7.5,0-10.4-6.5-10.4-22.4
		C11,7.4,15,1.8,21.6,1.8c7.5,0,12.6,8.4,13.7,15.1h1.6V1.4z"/>
	<path class="st0" d="M60,39.6c-0.1,3.4-2.1,6.3-5.1,6.3c-4.4,0-4.6-3.7-4.6-6.6c0-3.4,0.4-5.7,4.6-6.2l5.1-0.5V39.6z M71.8,41.7
		c0,1.7-1.1,3.6-1.8,3.6c-1.2,0-1.4-1.2-1.4-3.2V27.2c0-7.4-6.9-9.2-13.6-9.2c-6.5,0-11.2,3.2-11.2,6.8c0,2.3,1.3,4.2,4.2,4.2
		c2.5,0,4-1.6,4-3.9c0-3.3-3.4-3.3-3.4-3.4c0-1.5,3.8-1.9,6-1.9c4.9,0,5.5,1.8,5.5,5.7v5.4l-6.4,0.5c-5.9,0.5-12.3,2-12.3,8.8
		c0,5.6,5.1,7.9,10,7.9c2.5,0,7-1,8.7-4.1c1.2,2.7,3.6,4.1,6.5,4.1c4.2,0,6.9-2.5,6.9-6.3H71.8z"/>
	<polygon class="st0" points="674.5,18.6 674.5,45.4 679,45.4 679,47.2 661.1,47.2 661.1,45.4 665.6,45.4 665.6,20.5 661.1,20.5 
		661.1,18.6 	"/>
	<path class="st0" d="M286,32.5l10.7-30.7h14.8l0,1.8h-4.2v42h4.2v1.8h-17.8v-1.8h4.3V4h-0.1l-15.1,43.3H281L265.5,3.2h-0.1V40
		c0,5.2,1.4,5.5,4.9,5.5h0.2v1.8h-11.2v-1.8l0,0c3.7,0,4.4-2.2,4.4-4.9v-37h-4.4V1.7h16.3L286,32.5z"/>
	<path class="st0" d="M321.8,29.9v-4.4c0-4.3,1.9-5.7,4.1-5.7c3.1,0,4.1,2.1,4.1,5.7v4.4H321.8z M321.8,31.6h17.9
		c-0.1-7-6.5-13.7-13.4-13.6c-7.6,0-14.3,6.6-14.3,15.4c0,8.4,6.2,14.7,14.5,14.7c8,0,11.9-4.9,13.4-11.3h-1.8
		c-1.4,6-4.6,9.5-9.6,9.5c-6,0-6.7-4.7-6.7-9.1V31.6z"/>
	<path class="st0" d="M591.1,29.8v-4.4c0-4.3,1.9-5.7,4.1-5.7c3.1,0,4.1,2.1,4.1,5.7v4.4H591.1z M591.1,31.5H609
		c-0.1-7-6.5-13.7-13.4-13.6c-7.6,0-14.3,6.6-14.3,15.4c0,8.4,6.2,14.7,14.5,14.7c8,0,11.9-4.9,13.4-11.3h-1.8
		c-1.4,6-4.6,9.5-9.6,9.5c-6,0-6.7-4.7-6.7-9.1V31.5z"/>
	<polygon class="st0" points="339.8,1.8 339.8,3.4 344.3,3.4 344.3,45.5 339.8,45.5 339.8,47.3 357.7,47.3 357.7,45.5 353.3,45.5 
		353.3,1.8 	"/>
	<polygon class="st0" points="359,1.8 359,3.4 363.4,3.4 363.4,45.5 359,45.5 359,47.3 376.9,47.3 376.9,45.5 372.4,45.5 372.4,1.8 
			"/>
	<path class="st0" d="M397.4,39.5c0,4.9-2,6.9-5.3,6.9c-3.3,0-5.3-2-5.3-6.9V26.7c0-4.9,2-6.9,5.3-6.9c3.3,0,5.3,2,5.3,6.9V39.5z
		 M407.5,33.1c0-8.9-6.9-15-15.4-15c-8.6,0-15.4,6.2-15.4,15c0,8.9,6.9,15,15.4,15C400.7,48.1,407.5,41.9,407.5,33.1"/>
	<path class="st0" d="M454.1,3.3h4.5v28.8c0,10,6.9,16.1,17.5,16.1c11.9,0,17.1-6.3,17.1-15.8V7.8c0-3.8,1-4.5,3.4-4.5h1.3V1.5
		h-11.4v1.7h0.8c3.3,0,3.8,1,3.8,4.8v25c0,8.8-5.5,12.8-11,12.8c-9.5,0-11.3-6.4-11.9-14.6V3.3h4.2V1.5h-18.3V3.3z"/>
	<path class="st0" d="M566.3,47.9h1.7l9.6-22.7c1.9-4.2,3-4.8,4.5-4.8h0.6v-1.8h-10.1v1.8h1.2c1.9,0,2.7-0.1,2.7,1.6
		c0,1-0.3,2.1-1.1,3.9l-4.4,10.4L564,20.4h3.6v-1.8h-16.3v1.8h3L566.3,47.9z"/>
	<path class="st0" d="M638.6,47.9h1.5c0.3-1,1-1.6,2.3-1.6c1.7,0,3.7,1.6,7.3,1.6c6.2,0,10.4-5.3,10.4-10.6c0-7.9-5.4-8.5-12.4-9.5
		c-3.6-0.5-5.7-1-5.7-3.9c0-3,2.7-4.3,6.2-4.3c4.9,0,6.7,3.2,8.4,7.4h1.5l0-9.2h-1.5c0,0.8-0.7,1.4-1.9,1.4c-2.1,0-3.8-1.4-6.7-1.4
		c-6.5,0-9.7,5.5-9.7,9.7c0,8.4,6.4,9.1,11.3,9.7c4.7,0.6,6.4,0.9,6.4,3.9c0,3.4-2.9,5-6.4,5c-4.9,0-8.3-4.3-9.5-9h-1.5V47.9z"/>
	<polygon class="st0" points="549,18.6 549,45.4 553.5,45.4 553.5,47.2 535.6,47.2 535.6,45.4 540.1,45.4 540.1,20.5 535.6,20.5 
		535.6,18.6 	"/>
	<path class="st0" d="M540.1,9.7c0,2.5,2,4.5,4.5,4.5c2.5,0,4.5-2,4.5-4.5c0-2.5-2-4.5-4.5-4.5C542,5.2,540.1,7.2,540.1,9.7"/>
	<path class="st0" d="M665.6,9.7c0,2.5,2,4.5,4.5,4.5c2.5,0,4.5-2,4.5-4.5c0-2.5-2-4.5-4.5-4.5C667.6,5.2,665.6,7.2,665.6,9.7"/>
	<path class="st0" d="M149.8,29.9v-4.4c0-4.3,1.9-5.7,4.1-5.7c3.1,0,4.1,2.1,4.1,5.7v4.4H149.8z M149.8,31.6h17.9
		c-0.1-7-6.5-13.7-13.4-13.6c-7.6,0-14.3,6.6-14.3,15.4c0,8.4,6.2,14.7,14.5,14.7c8,0,11.9-4.9,13.4-11.3h-1.8
		c-1.4,6-4.6,9.5-9.6,9.5c-6,0-6.7-4.7-6.7-9.1V31.6z"/>
	<path class="st0" d="M228,29.9v-4.4c0-4.3,1.9-5.7,4.1-5.7c2.3,0,4.1,1.3,4.1,5.7v4.4H228z M228,31.6h17.9
		c-0.1-7-6.5-13.7-13.4-13.6c-7.6,0-14.3,6.6-14.3,15.4c0,8.4,6.2,14.7,14.5,14.7c8,0,11.9-4.9,13.4-11.3h-1.8
		c-1.4,6-4.6,9.5-9.6,9.5c-6,0-6.7-4.7-6.7-9.1V31.6z"/>
	<path class="st0" d="M529.8,45.5V28c0-7-3-10.3-9.1-10.3c-4.3,0-8.7,2.5-10.5,6.3h0v-5.2h-13.4v1.7h4.5v25h-4.5v1.8H514v-1.8h-3.8
		V28.4c0.6-2.4,3.6-8,7.1-8c2.4,0,3.5,0.8,3.5,5.2v19.9h-3.7v1.8h17.1v-1.8H529.8z"/>
	<path class="st0" d="M420.9,18.8v5.2h0c1.8-3.8,6.2-6.3,10.5-6.3c6.2,0,9.1,3.3,9.1,10.3v17.5h4.5v1.8h-17.1v-1.8h3.7V25.7
		c0-4.3-1.2-5.2-3.5-5.2c-3.5,0-6.6,5.6-7.1,8v17.1h3.8v1.8h-17.2v-1.8h4.5v-25h-4.5v-1.7H420.9z"/>
	<path class="st0" d="M135.5,45.6V28.1c0-7-3-10.3-9.1-10.3c-4.3,0-8.7,2.5-10.5,6.3h0v-5.2h-13.4v1.7h4.5v25h-4.5v1.8h17.2v-1.8
		h-3.8V28.5c0.6-2.4,3.6-8,7.1-8c2.4,0,3.5,0.8,3.5,5.2v19.9h-3.7v1.8H140v-1.8H135.5z"/>
	<path class="st0" d="M204.6,9.8c0,2.5,2,4.5,4.5,4.5c2.5,0,4.5-2,4.5-4.5c0-2.5-2-4.5-4.5-4.5C206.6,5.4,204.6,7.4,204.6,9.8"/>
	<path class="st0" d="M718,18.6v1.9c2.8,0,4,0.3,4,1.5c0,1-0.3,2.1-1.1,3.9l-4.4,10.4l-7-15.8h3.7v-1.9h-22.3V4.7h-1.2
		c0,6.9-4.7,13.9-11.2,13.9v1.9h3.4v20.1c0,6.2,5.3,7.4,7.1,7.4c4,0,6.6-1.6,8.6-5l-1.4-0.8c-0.8,1.2-1.8,2.7-3.4,2.7
		c-1.3,0-2-0.9-2-3.1V20.5h9l11.8,27.3l-4.1,9.7l0,0c0,0,0,0,0,0l0,0c-0.1,0.2-0.3,0.3-0.5,0.3c-0.2,0-0.4-0.2-0.5-0.4c0,0,0,0,0,0
		c-0.5-1.9-2.2-3.2-4.3-3.2c-2.5,0-4.5,2-4.5,4.5c0,1.7,1,3.2,2.4,4c0,0,0,0,0,0c0,0,0.1,0,0.1,0.1c0.1,0,0.2,0.1,0.3,0.1
		c0.5,0.2,1,0.3,1.6,0.3c3.8,0.3,5.7-2.5,7-5.3c0.3-0.6,0.6-1.3,0.8-1.9c0.6-1.4,1.6-3.7,2.7-6.5l0,0l1.1-2.6l0,0l9.1-21.6
		c1.9-4.2,2.7-4.8,5-4.8h0v-1.9H718z"/>
	<path class="st0" d="M95.9,17.7c-4.1,0-7.3,2.9-8.6,6.1h-0.1v-4.9H74v1.8h4.5v24.9H74v1.8h19.4v-1.8h-6v-14c0-4.2,1.1-8.4,3.8-10.8
		c0.2-0.1,0.4-0.1,0.6-0.1c0.2,0.1,0.3,0.3,0.3,0.6l0,0c-0.2,0.5-0.3,1.1-0.3,1.8c-0.1,2.4,1.9,4.2,4.4,4.2c3.1,0,4.9-2.3,4.9-4.7
		C101.1,19.6,99,17.7,95.9,17.7z"/>
	<path class="st0" d="M193.5,19.8c0.1,0,0.3-0.1,0.4,0c0.1,0.1,0.1,0.2,0,0.4l0,0c-0.4,0.7-0.5,1.5-0.2,2.4c0.3,0.9,1.1,1.6,2,1.8
		c1.9,0.4,3.5-0.9,3.5-2.7c0-1.1-0.7-2-1.5-2.5c-0.8-0.5-1.8-0.8-2.9-0.8c-1.7,0-3.5,0.9-4.8,2c0,0,0,0,0,0
		c-0.3-0.2-0.6-0.4-0.9-0.6c-1.8-1-4.1-1.7-7.2-1.7c-5.4,0-11.3,3.6-11.3,9.5c0,3.6,1.9,6.4,5.4,7.9v0.1c-2.5,0.3-6.5,2.1-6.5,7.5
		c0,3.2,1.5,5.7,4.2,6.5v0.1c-2.6,0.7-5.6,3.3-5.6,6.4c0,4.8,5.6,8.5,12.8,8.5c9,0,14.9-6.1,14.9-14c0-6.3-3.1-9.1-9.5-9h-10.8
		c-1.6,0-2.7-0.1-2.7-1.8c0-1.6,2.5-3.4,4.9-3.4c0.4,0,1.1,0.3,1.3,0.4c0.8,0.3,1.6,0.4,2.7,0.4c5.6,0,11.5-3.2,11.5-9.3
		c0-1.9-0.8-4.5-2.4-6.1c-0.1-0.1-0.1-0.2,0-0.3c0.6-0.5,1.3-0.9,1.7-1.1C193,20,193.2,19.9,193.5,19.8L193.5,19.8z M184.9,49.6
		c6.5,0,8.2,0.3,8.2,4.2c0,4.7-5.8,9.1-12.3,9.1c-5.8,0-8.6-3.6-8.8-6.7c0-2.9,1.4-4.7,3.2-6.6H184.9z M186,27.5
		c0,7.5-1.7,7.8-4.1,7.8c-2.6,0-4-0.5-4-8c0-5.3,0.6-7.5,4-7.5C184.9,19.8,185.9,20,186,27.5L186,27.5z"/>
	<path class="st0" d="M631.7,17.5c-4.1,0-7.3,2.9-8.6,6.1H623v-4.9h-13.3v1.8h4.5v24.9h-4.5v1.8h19.4v-1.8h-6v-14
		c0-4.2,1.1-8.4,3.8-10.8c0.2-0.1,0.4-0.1,0.6-0.1c0.2,0.1,0.3,0.3,0.3,0.6l0,0c-0.2,0.5-0.3,1.1-0.3,1.8c-0.1,2.4,1.9,4.2,4.4,4.2
		c3.1,0,4.9-2.3,4.9-4.7C636.8,19.3,634.7,17.5,631.7,17.5z"/>
</g>
<g>
	<path class="st0" d="M30.2,116.6c0,3.9-1.4,6.9-4.3,9.2c-2.8,2.3-6.6,3.4-11.3,3.4c-5.7,0-10-0.6-13-1.9v-3.2
		c3.3,1.4,7.6,2.1,12.8,2.1c3.8,0,6.8-0.9,9.1-2.6c2.2-1.7,3.3-4,3.3-6.9c0-1.8-0.4-3.2-1.1-4.4c-0.7-1.2-1.9-2.2-3.6-3.2
		c-1.7-1-4.1-2-7.4-3.1c-4.7-1.6-8-3.4-9.8-5.3c-1.8-1.9-2.7-4.4-2.7-7.6c0-3.5,1.4-6.3,4.1-8.5c2.7-2.2,6.2-3.3,10.5-3.3
		c4.4,0,8.5,0.8,12.3,2.5l-1.2,2.8c-3.9-1.6-7.5-2.4-11-2.4c-3.4,0-6.2,0.8-8.2,2.4s-3,3.7-3,6.5c0,1.7,0.3,3.1,0.9,4.2
		c0.6,1.1,1.6,2.1,3.1,3c1.4,0.9,3.9,1.9,7.3,3.2c3.6,1.2,6.3,2.5,8.2,3.6c1.8,1.2,3.1,2.5,4,4C29.8,112.7,30.2,114.5,30.2,116.6z"
		/>
	<path class="st0" d="M66.8,111.2c0,5.6-1.4,10-4.1,13.2c-2.7,3.2-6.5,4.7-11.3,4.7c-3,0-5.7-0.7-8-2.2c-2.3-1.5-4.1-3.6-5.3-6.3
		c-1.2-2.7-1.8-5.9-1.8-9.5c0-5.6,1.4-10,4.1-13.2c2.7-3.1,6.5-4.7,11.2-4.7c4.7,0,8.5,1.6,11.2,4.8
		C65.5,101.3,66.8,105.7,66.8,111.2z M39.6,111.2c0,4.7,1,8.4,3.1,11.1c2.1,2.7,5,4,8.8,4s6.8-1.3,8.8-4c2.1-2.7,3.1-6.4,3.1-11.1
		c0-4.8-1.1-8.5-3.2-11.1c-2.1-2.6-5.1-3.9-8.9-3.9s-6.7,1.3-8.8,3.9C40.6,102.8,39.6,106.5,39.6,111.2z"/>
	<path class="st0" d="M88.5,96.8h-8.1v31.8h-3.1V96.8h-6.4v-1.8l6.4-1.2v-2.7c0-4.2,0.8-7.3,2.3-9.3c1.6-2,4.1-3,7.6-3
		c1.9,0,3.8,0.3,5.7,0.9l-0.7,2.7c-1.7-0.5-3.4-0.8-5-0.8c-2.5,0-4.2,0.7-5.2,2.2s-1.5,3.8-1.5,7.1V94h8.1V96.8z"/>
	<path class="st0" d="M106.3,126.4c2,0,3.7-0.2,5.2-0.5v2.5c-1.5,0.5-3.3,0.8-5.3,0.8c-3,0-5.3-0.8-6.7-2.4
		c-1.4-1.6-2.2-4.2-2.2-7.7V96.8h-5.1v-1.8l5.1-1.4l1.6-7.8h1.6V94h10.1v2.7h-10.1v21.8c0,2.6,0.5,4.6,1.4,5.9
		C102.8,125.8,104.3,126.4,106.3,126.4z"/>
	<path class="st0" d="M147.5,128.5l-7.6-23.1c-0.5-1.6-1.1-3.9-1.9-6.9h-0.2l-0.7,2.3l-1.4,4.6l-7.7,23H125L115.1,94h3.4l5.5,20
		c1.3,5,2.1,8.6,2.5,10.9h0.2c1.2-5,2.2-8.2,2.7-9.9l7.1-21h2.9l6.8,21c1.5,5,2.5,8.3,2.8,9.9h0.2c0.2-1.4,1-5.1,2.5-11L157,94h3.2
		l-9.4,34.5H147.5z"/>
	<path class="st0" d="M187,128.5l-0.8-5.5H186c-1.7,2.2-3.5,3.8-5.3,4.7c-1.8,0.9-4,1.4-6.5,1.4c-3.4,0-6-0.9-7.9-2.6
		c-1.9-1.7-2.8-4.1-2.8-7.2c0-3.4,1.4-6,4.2-7.8c2.8-1.9,6.9-2.8,12.2-3l6.6-0.2v-2.3c0-3.3-0.7-5.8-2-7.4c-1.3-1.7-3.5-2.5-6.4-2.5
		c-3.2,0-6.5,0.9-9.9,2.7l-1.2-2.7c3.8-1.8,7.5-2.7,11.2-2.7c3.8,0,6.6,1,8.5,3c1.9,2,2.8,5,2.8,9.2v22.9H187z M174.3,126.3
		c3.7,0,6.6-1.1,8.7-3.2c2.1-2.1,3.2-5,3.2-8.8V111l-6,0.3c-4.8,0.2-8.3,1-10.4,2.3c-2.1,1.3-3.1,3.3-3.1,6c0,2.2,0.7,3.8,2,5
		C170,125.7,171.9,126.3,174.3,126.3z"/>
	<path class="st0" d="M215.1,93.4c1.5,0,3,0.1,4.7,0.4l-0.6,3c-1.4-0.4-2.9-0.5-4.5-0.5c-2.9,0-5.4,1.2-7.2,3.7
		c-1.9,2.5-2.8,5.6-2.8,9.5v19h-3.1V94h2.7l0.3,6.2h0.2c1.4-2.5,2.9-4.3,4.5-5.3C210.8,93.9,212.8,93.4,215.1,93.4z"/>
	<path class="st0" d="M236.6,129.2c-5,0-8.9-1.5-11.7-4.6c-2.8-3.1-4.2-7.4-4.2-13c0-5.5,1.4-9.9,4.1-13.2c2.7-3.3,6.4-5,10.9-5
		c4.1,0,7.3,1.4,9.6,4.3c2.3,2.8,3.5,6.7,3.5,11.6v2.5H224c0,4.7,1.1,8.4,3.3,10.9c2.2,2.5,5.3,3.7,9.3,3.7c2,0,3.7-0.1,5.2-0.4
		c1.5-0.3,3.4-0.9,5.7-1.8v2.9c-1.9,0.8-3.7,1.4-5.4,1.7S238.6,129.2,236.6,129.2z M235.7,96.2c-3.3,0-6,1.1-8,3.3
		c-2,2.2-3.2,5.3-3.5,9.5h21.3c0-4-0.9-7.1-2.6-9.4C241.2,97.3,238.8,96.2,235.7,96.2z"/>
	<path class="st0" d="M300.1,128.5h-25.4V82.1h25.4v3H278v17.6h20.9v3H278v19.9h22.1V128.5z"/>
	<path class="st0" d="M331.6,128.5v-22.4c0-3.5-0.7-6-2.2-7.6c-1.5-1.6-3.7-2.4-6.8-2.4c-4.1,0-7.1,1-9.1,3.1
		c-1.9,2.1-2.9,5.5-2.9,10.1v19h-3.1V94h2.7l0.6,4.7h0.2c2.2-3.6,6.2-5.4,12-5.4c7.8,0,11.7,4.2,11.7,12.6v22.6H331.6z"/>
	<path class="st0" d="M372.3,94v2.2l-7.1,0.4c1.9,2.4,2.9,5,2.9,7.8c0,3.3-1.1,6-3.3,8.1c-2.2,2.1-5.2,3.1-8.9,3.1
		c-1.6,0-2.7-0.1-3.3-0.2c-1.2,0.7-2.2,1.4-2.9,2.3c-0.7,0.9-1,1.8-1,2.8c0,1.1,0.4,1.9,1.3,2.4s2.2,0.8,4.2,0.8h6
		c3.7,0,6.6,0.8,8.6,2.3c2,1.5,3,3.7,3,6.7c0,3.6-1.5,6.4-4.4,8.4c-3,2-7.2,3-12.6,3c-4.3,0-7.7-0.8-10.1-2.5c-2.4-1.7-3.6-4-3.6-7
		c0-2.4,0.7-4.3,2.2-5.9c1.5-1.6,3.5-2.6,6-3.2c-1-0.4-1.9-1.1-2.5-1.9c-0.6-0.8-0.9-1.8-0.9-2.8c0-2.3,1.5-4.3,4.4-6.1
		c-2-0.8-3.6-2.1-4.7-3.9c-1.1-1.8-1.7-3.8-1.7-6.1c0-3.4,1.1-6.2,3.3-8.3c2.2-2.1,5.1-3.1,8.9-3.1c2.3,0,4,0.2,5.3,0.7H372.3z
		 M344.4,134.4c0,4.7,3.5,7.1,10.6,7.1c9.1,0,13.6-2.9,13.6-8.7c0-2.1-0.7-3.6-2.1-4.5c-1.4-0.9-3.7-1.4-6.9-1.4h-5.6
		C347.5,126.9,344.4,129.4,344.4,134.4z M347,104.8c0,2.7,0.8,4.7,2.4,6.2c1.6,1.5,3.8,2.2,6.5,2.2c2.9,0,5.1-0.7,6.6-2.2
		s2.3-3.6,2.3-6.3c0-2.9-0.8-5.1-2.4-6.6s-3.8-2.2-6.6-2.2c-2.8,0-4.9,0.8-6.5,2.4C347.8,99.8,347,102,347,104.8z"/>
	<path class="st0" d="M380.2,84.5c0-2,0.7-3,2-3c0.7,0,1.2,0.3,1.5,0.8c0.4,0.5,0.6,1.3,0.6,2.3c0,1-0.2,1.7-0.6,2.3
		c-0.4,0.6-0.9,0.8-1.5,0.8C380.9,87.5,380.2,86.5,380.2,84.5z M383.8,128.5h-3.1V94h3.1V128.5z"/>
	<path class="st0" d="M420.2,128.5v-22.4c0-3.5-0.7-6-2.2-7.6c-1.5-1.6-3.7-2.4-6.8-2.4c-4.1,0-7.1,1-9.1,3.1
		c-1.9,2.1-2.9,5.5-2.9,10.1v19h-3.1V94h2.7l0.6,4.7h0.2c2.2-3.6,6.2-5.4,12-5.4c7.8,0,11.7,4.2,11.7,12.6v22.6H420.2z"/>
	<path class="st0" d="M446.9,129.2c-5,0-8.9-1.5-11.7-4.6c-2.8-3.1-4.2-7.4-4.2-13c0-5.5,1.4-9.9,4.1-13.2c2.7-3.3,6.4-5,10.9-5
		c4.1,0,7.3,1.4,9.6,4.3c2.3,2.8,3.5,6.7,3.5,11.6v2.5h-24.9c0,4.7,1.1,8.4,3.3,10.9c2.2,2.5,5.3,3.7,9.3,3.7c2,0,3.7-0.1,5.2-0.4
		c1.5-0.3,3.4-0.9,5.7-1.8v2.9c-1.9,0.8-3.7,1.4-5.4,1.7S448.9,129.2,446.9,129.2z M446,96.2c-3.3,0-6,1.1-8,3.3
		c-2,2.2-3.2,5.3-3.5,9.5h21.3c0-4-0.9-7.1-2.6-9.4C451.5,97.3,449.1,96.2,446,96.2z"/>
	<path class="st0" d="M481.4,129.2c-5,0-8.9-1.5-11.7-4.6c-2.8-3.1-4.2-7.4-4.2-13c0-5.5,1.4-9.9,4.1-13.2c2.7-3.3,6.4-5,10.9-5
		c4.1,0,7.3,1.4,9.6,4.3c2.3,2.8,3.5,6.7,3.5,11.6v2.5h-24.9c0,4.7,1.1,8.4,3.3,10.9c2.2,2.5,5.3,3.7,9.3,3.7c2,0,3.7-0.1,5.2-0.4
		c1.5-0.3,3.4-0.9,5.7-1.8v2.9c-1.9,0.8-3.7,1.4-5.4,1.7S483.4,129.2,481.4,129.2z M480.5,96.2c-3.3,0-6,1.1-8,3.3
		c-2,2.2-3.2,5.3-3.5,9.5h21.3c0-4-0.9-7.1-2.6-9.4C486,97.3,483.6,96.2,480.5,96.2z"/>
	<path class="st0" d="M515,93.4c1.5,0,3,0.1,4.7,0.4l-0.6,3c-1.4-0.4-2.9-0.5-4.5-0.5c-2.9,0-5.4,1.2-7.2,3.7
		c-1.9,2.5-2.8,5.6-2.8,9.5v19h-3.1V94h2.7l0.3,6.2h0.2c1.4-2.5,2.9-4.3,4.5-5.3C510.8,93.9,512.7,93.4,515,93.4z"/>
	<path class="st0" d="M524.1,84.5c0-2,0.7-3,2-3c0.7,0,1.2,0.3,1.5,0.8c0.4,0.5,0.6,1.3,0.6,2.3c0,1-0.2,1.7-0.6,2.3
		c-0.4,0.6-0.9,0.8-1.5,0.8C524.7,87.5,524.1,86.5,524.1,84.5z M527.7,128.5h-3.1V94h3.1V128.5z"/>
	<path class="st0" d="M564,128.5v-22.4c0-3.5-0.7-6-2.2-7.6c-1.5-1.6-3.7-2.4-6.8-2.4c-4.1,0-7.1,1-9.1,3.1
		c-1.9,2.1-2.9,5.5-2.9,10.1v19H540V94h2.7l0.6,4.7h0.2c2.2-3.6,6.2-5.4,12-5.4c7.8,0,11.7,4.2,11.7,12.6v22.6H564z"/>
	<path class="st0" d="M605.6,94v2.2l-7.1,0.4c1.9,2.4,2.9,5,2.9,7.8c0,3.3-1.1,6-3.3,8.1c-2.2,2.1-5.2,3.1-8.9,3.1
		c-1.6,0-2.7-0.1-3.3-0.2c-1.2,0.7-2.2,1.4-2.9,2.3c-0.7,0.9-1,1.8-1,2.8c0,1.1,0.4,1.9,1.3,2.4s2.2,0.8,4.2,0.8h6
		c3.7,0,6.6,0.8,8.6,2.3c2,1.5,3,3.7,3,6.7c0,3.6-1.5,6.4-4.4,8.4c-3,2-7.2,3-12.6,3c-4.3,0-7.7-0.8-10.1-2.5c-2.4-1.7-3.6-4-3.6-7
		c0-2.4,0.7-4.3,2.2-5.9c1.5-1.6,3.5-2.6,6-3.2c-1-0.4-1.9-1.1-2.5-1.9c-0.6-0.8-0.9-1.8-0.9-2.8c0-2.3,1.5-4.3,4.4-6.1
		c-2-0.8-3.6-2.1-4.7-3.9c-1.1-1.8-1.7-3.8-1.7-6.1c0-3.4,1.1-6.2,3.3-8.3c2.2-2.1,5.1-3.1,8.9-3.1c2.3,0,4,0.2,5.3,0.7H605.6z
		 M577.7,134.4c0,4.7,3.5,7.1,10.6,7.1c9.1,0,13.6-2.9,13.6-8.7c0-2.1-0.7-3.6-2.1-4.5c-1.4-0.9-3.7-1.4-6.9-1.4h-5.7
		C580.9,126.9,577.7,129.4,577.7,134.4z M580.3,104.8c0,2.7,0.8,4.7,2.4,6.2c1.6,1.5,3.8,2.2,6.5,2.2c2.9,0,5.1-0.7,6.6-2.2
		s2.3-3.6,2.3-6.3c0-2.9-0.8-5.1-2.4-6.6s-3.8-2.2-6.6-2.2c-2.8,0-4.9,0.8-6.5,2.4C581.1,99.8,580.3,102,580.3,104.8z"/>
	<path class="st0" d="M626.5,128.5V82.1h3.2v46.4H626.5z"/>
	<path class="st0" d="M665.9,128.5v-22.4c0-3.5-0.7-6-2.2-7.6c-1.5-1.6-3.7-2.4-6.8-2.4c-4.1,0-7.1,1-9.1,3.1
		c-1.9,2.1-2.9,5.5-2.9,10.1v19h-3.1V94h2.7l0.6,4.7h0.2c2.2-3.6,6.2-5.4,12-5.4c7.8,0,11.7,4.2,11.7,12.6v22.6H665.9z"/>
	<path class="st0" d="M700.9,119.6c0,3.1-1.2,5.5-3.5,7.1c-2.3,1.7-5.7,2.5-10,2.5c-4.6,0-8.3-0.7-11-2.1v-3.4
		c3.5,1.7,7.1,2.6,11,2.6c3.4,0,6-0.6,7.8-1.7c1.8-1.1,2.7-2.6,2.7-4.5c0-1.7-0.7-3.2-2.1-4.4c-1.4-1.2-3.7-2.3-6.9-3.5
		c-3.4-1.2-5.9-2.3-7.3-3.2c-1.4-0.9-2.4-1.9-3.2-3c-0.7-1.1-1.1-2.5-1.1-4.1c0-2.6,1.1-4.6,3.3-6.1c2.2-1.5,5.2-2.3,9.1-2.3
		c3.7,0,7.3,0.7,10.6,2.1l-1.2,2.9c-3.4-1.4-6.5-2.1-9.4-2.1c-2.8,0-5,0.5-6.7,1.4c-1.7,0.9-2.5,2.2-2.5,3.9c0,1.8,0.6,3.2,1.9,4.3
		c1.3,1.1,3.8,2.3,7.5,3.6c3.1,1.1,5.4,2.1,6.8,3c1.4,0.9,2.5,1.9,3.2,3.1S700.9,118,700.9,119.6z"/>
	<path class="st0" d="M719.3,126.4c2,0,3.7-0.2,5.2-0.5v2.5c-1.5,0.5-3.3,0.8-5.3,0.8c-3,0-5.3-0.8-6.7-2.4
		c-1.4-1.6-2.2-4.2-2.2-7.7V96.8h-5.1v-1.8l5.1-1.4l1.6-7.8h1.6V94h10.1v2.7h-10.1v21.8c0,2.6,0.5,4.6,1.4,5.9
		C715.8,125.8,717.3,126.4,719.3,126.4z"/>
	<path class="st0" d="M730.4,84.5c0-2,0.7-3,2-3c0.7,0,1.2,0.3,1.5,0.8c0.4,0.5,0.6,1.3,0.6,2.3c0,1-0.2,1.7-0.6,2.3
		c-0.4,0.6-0.9,0.8-1.5,0.8C731,87.5,730.4,86.5,730.4,84.5z M733.9,128.5h-3.1V94h3.1V128.5z"/>
	<path class="st0" d="M756.2,126.4c2,0,3.7-0.2,5.2-0.5v2.5c-1.5,0.5-3.3,0.8-5.3,0.8c-3,0-5.3-0.8-6.7-2.4
		c-1.4-1.6-2.2-4.2-2.2-7.7V96.8h-5.1v-1.8l5.1-1.4l1.6-7.8h1.6V94h10.1v2.7h-10.1v21.8c0,2.6,0.5,4.6,1.4,5.9
		C752.8,125.8,754.2,126.4,756.2,126.4z"/>
	<path class="st0" d="M769.5,94v22.3c0,3.5,0.7,6,2.2,7.6c1.5,1.6,3.7,2.4,6.8,2.4c4.1,0,7.1-1,9.1-3.1c1.9-2.1,2.9-5.4,2.9-10.1V94
		h3.1v34.5h-2.7l-0.6-4.8h-0.2c-2.2,3.6-6.2,5.4-12,5.4c-7.8,0-11.8-4.2-11.8-12.6V94H769.5z"/>
	<path class="st0" d="M814.8,126.4c2,0,3.7-0.2,5.2-0.5v2.5c-1.5,0.5-3.3,0.8-5.3,0.8c-3,0-5.3-0.8-6.7-2.4
		c-1.4-1.6-2.2-4.2-2.2-7.7V96.8h-5.1v-1.8l5.1-1.4l1.6-7.8h1.6V94h10.1v2.7H809v21.8c0,2.6,0.5,4.6,1.4,5.9
		C811.3,125.8,812.8,126.4,814.8,126.4z"/>
	<path class="st0" d="M839.7,129.2c-5,0-8.9-1.5-11.7-4.6c-2.8-3.1-4.2-7.4-4.2-13c0-5.5,1.4-9.9,4.1-13.2c2.7-3.3,6.4-5,10.9-5
		c4.1,0,7.3,1.4,9.6,4.3c2.3,2.8,3.5,6.7,3.5,11.6v2.5h-24.9c0,4.7,1.1,8.4,3.3,10.9c2.2,2.5,5.3,3.7,9.3,3.7c2,0,3.7-0.1,5.2-0.4
		c1.5-0.3,3.4-0.9,5.7-1.8v2.9c-1.9,0.8-3.7,1.4-5.4,1.7S841.7,129.2,839.7,129.2z M838.8,96.2c-3.3,0-6,1.1-8,3.3
		c-2,2.2-3.2,5.3-3.5,9.5h21.3c0-4-0.9-7.1-2.6-9.4C844.2,97.3,841.8,96.2,838.8,96.2z"/>
</g>
</svg>
